<?xml version="1.0" standalone="no"?>
<!DOCTYPE svg PUBLIC "-//W3C//DTD SVG 20010904//EN"
 "http://www.w3.org/TR/2001/REC-SVG-20010904/DTD/svg10.dtd">
<svg version="1.0" xmlns="http://www.w3.org/2000/svg"
 width="512.000000pt" height="512.000000pt" viewBox="0 0 512.000000 512.000000"
 preserveAspectRatio="xMidYMid meet">

<g transform="translate(0.000000,512.000000) scale(0.100000,-0.100000)"
fill="#000000" stroke="none">
<path d="M480 4467 c-49 -16 -133 -102 -148 -153 -17 -60 -17 -2808 0 -2868
16 -55 99 -138 154 -154 31 -9 235 -12 806 -12 l766 0 -60 -240 -60 -240 -185
0 c-182 0 -184 0 -208 -25 -33 -32 -33 -78 0 -110 l24 -25 991 0 991 0 24 25
c33 32 33 78 0 110 -24 25 -26 25 -208 25 l-185 0 -60 240 -60 240 766 0 c571
0 775 3 806 12 55 16 138 99 154 154 17 59 17 2808 0 2866 -6 22 -31 62 -55
88 -79 88 125 80 -2177 79 -1458 -1 -2051 -4 -2076 -12z m4135 -172 l25 -24 0
-1216 0 -1215 -2080 0 -2080 0 0 1215 0 1216 25 24 24 25 2031 0 2031 0 24
-25z m25 -2710 c0 -88 -2 -98 -25 -120 l-24 -25 -2031 0 -2031 0 -24 25 c-23
22 -25 32 -25 120 l0 95 2080 0 2080 0 0 -95z m-1682 -545 l60 -240 -458 0
-458 0 60 240 60 240 338 0 338 0 60 -240z"/>
<path d="M1365 3831 c-90 -22 -173 -90 -215 -176 -22 -46 -24 -66 -29 -242 -5
-173 -8 -194 -27 -219 -33 -45 -66 -64 -124 -73 -61 -10 -90 -36 -90 -81 0
-45 29 -71 90 -81 58 -9 91 -28 124 -73 19 -25 22 -46 26 -219 l6 -192 33 -63
c53 -98 140 -157 250 -168 55 -6 61 -5 85 19 56 56 24 124 -64 138 -58 9 -91
28 -124 73 -19 25 -22 46 -26 219 -6 207 -11 227 -77 315 l-25 33 25 32 c66
87 71 107 77 314 4 173 7 194 26 219 33 45 66 64 124 73 87 14 120 82 65 136
-25 26 -67 31 -130 16z"/>
<path d="M3626 3817 c-56 -56 -24 -124 64 -138 58 -9 91 -28 124 -73 19 -25
22 -46 26 -219 6 -207 11 -227 77 -314 l24 -33 -24 -32 c-66 -88 -71 -108 -77
-315 -4 -173 -7 -194 -26 -219 -33 -45 -66 -64 -124 -73 -88 -14 -120 -82 -64
-138 24 -24 30 -25 85 -19 110 11 197 70 250 168 l33 63 6 192 c4 173 7 194
26 219 33 45 66 64 124 73 61 10 90 36 90 81 0 45 -29 71 -90 81 -58 9 -91 28
-124 73 -19 25 -22 46 -26 219 l-6 192 -33 63 c-53 98 -140 157 -250 168 -55
6 -61 5 -85 -19z"/>
<path d="M1865 3735 c-16 -15 -25 -36 -25 -55 0 -19 9 -40 25 -55 24 -25 24
-25 240 -25 l216 0 -3 -509 c-3 -497 -4 -510 -24 -537 -39 -53 -71 -69 -134
-69 -90 0 -144 49 -159 145 -14 88 -82 120 -138 64 -24 -24 -25 -30 -19 -86 7
-70 54 -166 99 -204 16 -14 53 -37 81 -52 43 -22 64 -26 136 -26 72 0 93 4
136 26 75 39 107 70 145 140 l34 63 3 578 3 577 -25 25 -25 25 -271 0 -271 0
-24 -25z"/>
<path d="M2965 3751 c-135 -35 -229 -146 -242 -286 -10 -113 4 -139 248 -466
142 -191 221 -305 225 -326 21 -114 -76 -210 -191 -189 -67 13 -125 85 -125
156 0 71 -86 105 -137 54 -24 -24 -25 -30 -19 -86 7 -70 54 -166 99 -204 16
-14 53 -37 81 -52 43 -22 64 -26 136 -26 72 0 93 4 136 26 75 39 107 70 143
137 22 42 33 80 38 124 10 115 -3 141 -248 468 -145 193 -221 304 -225 326
-21 114 76 210 191 189 67 -13 125 -85 125 -156 0 -71 86 -105 137 -54 24 24
25 30 19 86 -7 70 -54 166 -99 204 -77 65 -205 98 -292 75z"/>
</g>
</svg>
